<svg width="50" height="50" viewBox="0 0 50 50" fill="none" xmlns="http://www.w3.org/2000/svg">
<g id="bi:list-check">
<g id="Group">
<path id="Vector" fill-rule="evenodd" clip-rule="evenodd" d="M15.624 35.9376C15.624 35.5232 15.7887 35.1258 16.0817 34.8328C16.3747 34.5397 16.7721 34.3751 17.1865 34.3751H45.3115C45.7259 34.3751 46.1234 34.5397 46.4164 34.8328C46.7094 35.1258 46.874 35.5232 46.874 35.9376C46.874 36.352 46.7094 36.7494 46.4164 37.0425C46.1234 37.3355 45.7259 37.5001 45.3115 37.5001H17.1865C16.7721 37.5001 16.3747 37.3355 16.0817 37.0425C15.7887 36.7494 15.624 36.352 15.624 35.9376ZM15.624 23.4376C15.624 23.0232 15.7887 22.6258 16.0817 22.3328C16.3747 22.0397 16.7721 21.8751 17.1865 21.8751H45.3115C45.7259 21.8751 46.1234 22.0397 46.4164 22.3328C46.7094 22.6258 46.874 23.0232 46.874 23.4376C46.874 23.852 46.7094 24.2494 46.4164 24.5425C46.1234 24.8355 45.7259 25.0001 45.3115 25.0001H17.1865C16.7721 25.0001 16.3747 24.8355 16.0817 24.5425C15.7887 24.2494 15.624 23.852 15.624 23.4376ZM15.624 10.9376C15.624 10.5232 15.7887 10.1258 16.0817 9.83275C16.3747 9.53973 16.7721 9.37511 17.1865 9.37511H45.3115C45.7259 9.37511 46.1234 9.53973 46.4164 9.83275C46.7094 10.1258 46.874 10.5232 46.874 10.9376C46.874 11.352 46.7094 11.7494 46.4164 12.0425C46.1234 12.3355 45.7259 12.5001 45.3115 12.5001H17.1865C16.7721 12.5001 16.3747 12.3355 16.0817 12.0425C15.7887 11.7494 15.624 11.352 15.624 10.9376ZM12.0428 6.70636C12.1883 6.8515 12.3038 7.02392 12.3825 7.21375C12.4613 7.40358 12.5018 7.60708 12.5018 7.81261C12.5018 8.01813 12.4613 8.22163 12.3825 8.41146C12.3038 8.60129 12.1883 8.77372 12.0428 8.91886L7.35529 13.6064C7.21015 13.7519 7.03773 13.8673 6.8479 13.9461C6.65807 14.0249 6.45457 14.0654 6.24904 14.0654C6.04352 14.0654 5.84002 14.0249 5.65019 13.9461C5.46036 13.8673 5.28794 13.7519 5.14279 13.6064L3.58029 12.0439C3.43502 11.8986 3.31978 11.7261 3.24116 11.5363C3.16254 11.3465 3.12207 11.1431 3.12207 10.9376C3.12207 10.7322 3.16254 10.5287 3.24116 10.3389C3.31978 10.1491 3.43502 9.97663 3.58029 9.83136C3.72557 9.68608 3.89804 9.57084 4.08785 9.49222C4.27766 9.4136 4.48109 9.37313 4.68654 9.37313C4.89199 9.37313 5.09543 9.4136 5.28524 9.49222C5.47505 9.57084 5.64752 9.68608 5.79279 9.83136L6.24904 10.2907L9.83029 6.70636C9.97544 6.56085 10.1479 6.4454 10.3377 6.36663C10.5275 6.28786 10.731 6.24731 10.9365 6.24731C11.1421 6.24731 11.3456 6.28786 11.5354 6.36663C11.7252 6.4454 11.8977 6.56085 12.0428 6.70636ZM12.0428 19.2064C12.1883 19.3515 12.3038 19.5239 12.3825 19.7138C12.4613 19.9036 12.5018 20.1071 12.5018 20.3126C12.5018 20.5181 12.4613 20.7216 12.3825 20.9115C12.3038 21.1013 12.1883 21.2737 12.0428 21.4189L7.35529 26.1064C7.21015 26.2519 7.03773 26.3673 6.8479 26.4461C6.65807 26.5249 6.45457 26.5654 6.24904 26.5654C6.04352 26.5654 5.84002 26.5249 5.65019 26.4461C5.46036 26.3673 5.28794 26.2519 5.14279 26.1064L3.58029 24.5439C3.2869 24.2505 3.12207 23.8525 3.12207 23.4376C3.12207 23.0227 3.2869 22.6248 3.58029 22.3314C3.87369 22.038 4.27162 21.8731 4.68654 21.8731C5.10147 21.8731 5.4994 22.038 5.79279 22.3314L6.24904 22.7907L9.83029 19.2064C9.97544 19.0608 10.1479 18.9454 10.3377 18.8666C10.5275 18.7879 10.731 18.7473 10.9365 18.7473C11.1421 18.7473 11.3456 18.7879 11.5354 18.8666C11.7252 18.9454 11.8977 19.0608 12.0428 19.2064ZM12.0428 31.7064C12.1883 31.8515 12.3038 32.0239 12.3825 32.2138C12.4613 32.4036 12.5018 32.6071 12.5018 32.8126C12.5018 33.0181 12.4613 33.2216 12.3825 33.4115C12.3038 33.6013 12.1883 33.7737 12.0428 33.9189L7.35529 38.6064C7.21015 38.7519 7.03773 38.8673 6.8479 38.9461C6.65807 39.0249 6.45457 39.0654 6.24904 39.0654C6.04352 39.0654 5.84002 39.0249 5.65019 38.9461C5.46036 38.8673 5.28794 38.7519 5.14279 38.6064L3.58029 37.0439C3.2869 36.7505 3.12207 36.3525 3.12207 35.9376C3.12207 35.5227 3.2869 35.1248 3.58029 34.8314C3.87369 34.538 4.27162 34.3731 4.68654 34.3731C5.10147 34.3731 5.4994 34.538 5.79279 34.8314L6.24904 35.2907L9.83029 31.7064C9.97544 31.5608 10.1479 31.4454 10.3377 31.3666C10.5275 31.2879 10.731 31.2473 10.9365 31.2473C11.1421 31.2473 11.3456 31.2879 11.5354 31.3666C11.7252 31.4454 11.8977 31.5608 12.0428 31.7064Z" fill="black" fill-opacity="0.6"/>
</g>
</g>
</svg>
