<svg width="40" height="40" viewBox="0 0 40 40" fill="none" xmlns="http://www.w3.org/2000/svg">
<rect width="40" height="40" fill="#E5E5E5"/>
<g id="Add Car">
<g clip-path="url(#clip0_0_1)">
<rect x="-340" y="-478" width="414" height="896" rx="12" fill="#F9F9F9"/>
<g id="Group 54">
<g id="Group 53">
<g id="Group 52">
<g id="bx:bx-help-circle">
<path id="Vector" d="M20 10C18.2618 10.0022 16.5953 10.6937 15.3662 11.9228C14.1371 13.152 13.4456 14.8184 13.4434 16.5567H16.7767C16.7767 14.7783 18.2234 13.3333 20 13.3333C21.7767 13.3333 23.2234 14.7783 23.2234 16.5567C23.2234 17.5533 22.4217 18.2767 21.1967 19.2667C20.7965 19.5802 20.4121 19.9134 20.045 20.265C18.3817 21.9267 18.3334 23.6917 18.3334 23.8883V25H21.6667L21.665 23.945C21.6667 23.9183 21.72 23.3017 22.4 22.6233C22.65 22.3733 22.965 22.1233 23.2917 21.86C24.59 20.8083 26.555 19.22 26.555 16.5567C26.5537 14.8184 25.8627 13.1517 24.6337 11.9225C23.4048 10.6932 21.7383 10.0018 20 10ZM18.3334 26.6667H21.6667V30H18.3334V26.6667Z" fill="#808080"/>
<path id="Vector_2" d="M19.9997 3.33325C10.8097 3.33325 3.33301 10.8099 3.33301 19.9999C3.33301 29.1899 10.8097 36.6666 19.9997 36.6666C29.1897 36.6666 36.6663 29.1899 36.6663 19.9999C36.6663 10.8099 29.1897 3.33325 19.9997 3.33325ZM19.9997 33.3333C12.648 33.3333 6.66634 27.3516 6.66634 19.9999C6.66634 12.6483 12.648 6.66659 19.9997 6.66659C27.3513 6.66659 33.333 12.6483 33.333 19.9999C33.333 27.3516 27.3513 33.3333 19.9997 33.3333Z" fill="#808080"/>
</g>
</g>
</g>
<g id="Group 50">
</g>
</g>
</g>
</g>
<defs>
<clipPath id="clip0_0_1">
<rect x="-340" y="-478" width="414" height="896" rx="12" fill="white"/>
</clipPath>
</defs>
</svg>
