<svg width="175" height="175" viewBox="0 0 175 175" fill="none" xmlns="http://www.w3.org/2000/svg">
<g id="bx:bx-wallet-alt">
<path id="Vector" d="M145.832 21.875H36.457C24.3966 21.875 14.582 31.6896 14.582 43.75V131.25C14.582 143.31 24.3966 153.125 36.457 153.125H145.832C153.875 153.125 160.415 146.584 160.415 138.542V36.4583C160.415 28.4156 153.875 21.875 145.832 21.875ZM36.457 138.542C32.432 138.542 29.1654 135.268 29.1654 131.25V43.75C29.1654 39.7323 32.432 36.4583 36.457 36.4583H145.832V58.3333H102.082C94.0393 58.3333 87.4987 64.874 87.4987 72.9167V102.083C87.4987 110.126 94.0393 116.667 102.082 116.667H145.839V138.542H36.457ZM145.832 72.9167V102.083H102.082V72.9167H145.832Z" fill="#808080"/>
</g>
</svg>
