<svg width="50" height="50" viewBox="0 0 50 50" fill="none" xmlns="http://www.w3.org/2000/svg">
<g id="ci:notification">
<g id="Group">
<path id="Vector" d="M24.9997 45.8334C23.8943 45.828 22.8355 45.3879 22.052 44.6083C21.2684 43.8286 20.8231 42.772 20.8122 41.6668H29.1455C29.1499 42.2238 29.0437 42.7761 28.833 43.2918C28.5636 43.91 28.1511 44.4553 27.6295 44.8827C27.1079 45.3101 26.4921 45.6074 25.833 45.7501H25.7351C25.493 45.8005 25.2469 45.8284 24.9997 45.8334ZM41.6663 39.5834H8.33301V35.4167L12.4997 33.3334V21.8751C12.3899 18.9357 13.0537 16.0191 14.4247 13.4167C15.0993 12.2236 16.0193 11.187 17.1239 10.3754C18.2286 9.5638 19.4927 8.99565 20.833 8.70841V4.16675H29.1663V8.70841C34.5393 9.98758 37.4997 14.6626 37.4997 21.8751V33.3334L41.6663 35.4167V39.5834Z" fill="black" fill-opacity="0.6"/>
</g>
</g>
</svg>
