<svg width="40" height="40" viewBox="0 0 40 40" fill="none" xmlns="http://www.w3.org/2000/svg">
<g id="clarity:logout-line">
<path id="Vector" d="M7.77789 6.66656H25.5557V17.5554H27.7779V6.66656C27.7779 6.07719 27.5438 5.51196 27.127 5.09521C26.7103 4.67846 26.145 4.44434 25.5557 4.44434H7.77789C7.18852 4.44434 6.62329 4.67846 6.20654 5.09521C5.78979 5.51196 5.55566 6.07719 5.55566 6.66656V33.3332C5.55566 33.9226 5.78979 34.4878 6.20654 34.9046C6.62329 35.3213 7.18852 35.5554 7.77789 35.5554H25.5557C26.145 35.5554 26.7103 35.3213 27.127 34.9046C27.5438 34.4878 27.7779 33.9226 27.7779 33.3332H7.77789V6.66656Z" fill="#808080"/>
<path id="Vector_2" d="M31.2892 19.2C31.0766 19.018 30.8032 18.9229 30.5236 18.9337C30.2439 18.9445 29.9787 19.0604 29.7808 19.2583C29.5829 19.4562 29.467 19.7214 29.4562 20.0011C29.4454 20.2807 29.5405 20.5541 29.7225 20.7667L33.4781 24.4445H17.367C17.0723 24.4445 16.7897 24.5615 16.5813 24.7699C16.3729 24.9783 16.2559 25.2609 16.2559 25.5556C16.2559 25.8503 16.3729 26.1329 16.5813 26.3413C16.7897 26.5496 17.0723 26.6667 17.367 26.6667H33.4781L29.7225 30.5111C29.6062 30.6108 29.5117 30.7333 29.4451 30.8712C29.3784 31.009 29.3409 31.1592 29.335 31.3122C29.3291 31.4652 29.3548 31.6178 29.4107 31.7604C29.4666 31.903 29.5513 32.0325 29.6596 32.1408C29.7679 32.249 29.8974 32.3338 30.0399 32.3896C30.1825 32.4455 30.3351 32.4713 30.4881 32.4654C30.6412 32.4595 30.7913 32.422 30.9292 32.3553C31.067 32.2886 31.1896 32.1941 31.2892 32.0778L37.7781 25.6334L31.2892 19.2Z" fill="#808080"/>
</g>
</svg>
