<svg width="171" height="171" viewBox="0 0 171 171" fill="none" xmlns="http://www.w3.org/2000/svg">
<g id="Frame" clip-path="url(#clip0_7_53)">
<path id="Vector" d="M80.4902 0H90.5098C92.7642 0.272046 95.0269 0.50224 97.2771 0.81614C114.135 3.20178 129.039 9.94016 141.801 21.2113C156.831 34.4913 166.228 51.015 169.685 70.8283C170.249 74.0427 170.57 77.2988 171 80.5383V90.5831C170.741 92.7762 170.524 94.9777 170.215 97.1666C167.861 113.967 161.331 128.954 150.022 141.602C129.669 164.35 104.099 173.905 73.8648 170.272C56.8525 168.225 41.8858 161.164 29.0608 149.789C14.1108 136.5 4.7551 120.019 1.31506 100.255C0.755637 97.0411 0.430005 93.7849 0 90.5496V80.5048C0.10437 79.9147 0.225444 79.3287 0.304765 78.7344C0.722246 75.6498 0.951857 72.5318 1.52798 69.4807C4.59925 52.7682 12.684 37.3931 24.7023 25.4091C37.4772 12.5392 52.8322 4.41134 70.7629 1.31838C73.9859 0.761731 77.2339 0.435274 80.4902 0ZM81.9765 96.949C81.3335 97.0327 80.6864 97.1038 80.0435 97.2043C77.3549 97.6228 74.6163 97.8404 71.9903 98.5017C51.9053 103.545 37.8488 115.662 29.687 134.705C29.2195 135.801 29.6662 136.325 30.3091 136.994C47.6011 154.907 68.6839 162.998 93.4363 160.595C112.098 158.787 127.833 150.58 140.749 136.965C141.584 136.078 141.618 135.395 141.167 134.341C132.4 114.389 117.4 102.185 96.0247 97.899C93.7118 97.4345 91.3489 97.2294 89.011 96.9029C106.211 94.3917 116.669 79.5757 115.471 64.4875C114.873 57.0496 111.544 50.0985 106.127 44.9801C100.711 39.8617 93.5929 36.94 86.1513 36.7807C71.2263 36.3998 58.059 47.5663 55.7963 62.2233C53.4375 77.5123 63.5781 94.2704 81.9765 96.949Z" fill="black" fill-opacity="0.3"/>
</g>
<defs>
<clipPath id="clip0_7_53">
<rect width="171" height="171" fill="white"/>
</clipPath>
</defs>
</svg>
