<svg width="146" height="146" viewBox="0 0 146 146" fill="none" xmlns="http://www.w3.org/2000/svg">
<g id="Group 1">
<path id="Vector" d="M20.2861 25.4868C8.50396 38.5055 1.98593 55.4415 2.00002 73C2.00002 112.149 33.8471 144 73 144C112.153 144 144 112.149 144 73C144 33.8506 112.149 2.00003 73 2.00003C56.8923 1.98403 41.2624 7.47121 28.6996 17.5526M73 134.688C38.9839 134.688 11.3117 107.016 11.3117 73C11.3117 38.9839 38.9839 11.3117 73 11.3117C107.016 11.3117 134.688 39.0017 134.688 73C134.688 106.998 107.013 134.688 73 134.688Z" stroke="black" stroke-opacity="0.6" stroke-width="4" stroke-miterlimit="10" stroke-linecap="round"/>
<path id="Vector_2" d="M87.8008 73.9698L105.604 56.0862C106.044 55.6484 106.394 55.1273 106.634 54.5529C106.874 53.9786 106.998 53.3622 107 52.7393C107.002 52.1164 106.881 51.4993 106.645 50.9234C106.409 50.3476 106.062 49.8244 105.624 49.3839C105.186 48.9435 104.665 48.5944 104.093 48.3569C103.52 48.1194 102.906 47.9981 102.287 48C101.667 48.0019 101.054 48.1269 100.483 48.3679C99.912 48.6089 99.3938 48.9611 98.9584 49.4042L61.9731 86.5697L47.0341 71.5586C46.1539 70.6701 44.9587 70.1697 43.7115 70.1673C42.4643 70.1649 41.2672 70.6609 40.3836 71.546C39.5001 72.4311 39.0024 73.633 39 74.8871C38.9977 76.1412 39.4908 77.3449 40.3711 78.2334L58.6505 96.6143C59.0869 97.0536 59.6051 97.4021 60.1756 97.6399C60.746 97.8776 61.3574 98 61.9749 98C62.5923 98 63.2038 97.8776 63.7742 97.6399C64.3446 97.4021 64.8628 97.0536 65.2992 96.6143V96.6143L81.2597 80.5653" stroke="black" stroke-opacity="0.6" stroke-width="4" stroke-miterlimit="10" stroke-linecap="round"/>
</g>
</svg>
