<svg width="42" height="42" viewBox="0 0 42 42" fill="none" xmlns="http://www.w3.org/2000/svg">
<g id="Group">
<path id="Vector" d="M16.7143 1V6.71429L13.8571 8.14286L9.57143 3.85714L3.85714 9.57143L8.14286 13.8571L6.71429 16.7143H1V25.2857H6.71429L8.14286 28.1429L3.85714 32.4286L9.57143 38.1429L13.8571 33.8571L16.7143 35.2857V41H25.2857V35.2857L28.1429 33.8571L32.4286 38.1429L38.1429 32.4286L33.8571 28.1429L35.2857 25.2857H41V16.7143H35.2857L33.8571 13.8571L38.1429 9.57143L32.4286 3.85714L28.1429 8.14286L25.2857 6.71429V1H16.7143Z" stroke="#808080" stroke-width="2" stroke-linecap="round" stroke-linejoin="round"/>
<path id="Vector_2" d="M20.9994 26.7142C24.1554 26.7142 26.7137 24.1558 26.7137 20.9999C26.7137 17.844 24.1554 15.2856 20.9994 15.2856C17.8435 15.2856 15.2852 17.844 15.2852 20.9999C15.2852 24.1558 17.8435 26.7142 20.9994 26.7142Z" stroke="#808080" stroke-width="2" stroke-linecap="round" stroke-linejoin="round"/>
</g>
</svg>
