<svg width="50" height="50" viewBox="0 0 50 50" fill="none" xmlns="http://www.w3.org/2000/svg">
<g id="ic:baseline-policy">
<path id="Vector" d="M43.75 10.4166L25 2.08325L6.25 10.4166V22.9166C6.25 34.4791 14.25 45.2916 25 47.9166C29.7917 46.7499 34.0208 43.9583 37.25 40.1874L30.75 33.6874C28.7473 35.0111 26.3484 35.6015 23.9601 35.3585C21.5717 35.1155 19.3409 34.054 17.6458 32.3541C15.6945 30.3999 14.5986 27.7511 14.5986 24.9895C14.5986 22.2279 15.6945 19.5791 17.6458 17.6249C19.6001 15.6736 22.2488 14.5776 25.0104 14.5776C27.772 14.5776 30.4208 15.6736 32.375 17.6249C34.0707 19.3225 35.1293 21.5528 35.3722 23.9399C35.6151 26.327 35.0274 28.7248 33.7083 30.7291L39.75 36.7707C42.2708 32.6874 43.75 27.8749 43.75 22.9166V10.4166Z" fill="black" fill-opacity="0.6"/>
<path id="Vector_2" d="M25 31.25C28.4518 31.25 31.25 28.4518 31.25 25C31.25 21.5482 28.4518 18.75 25 18.75C21.5482 18.75 18.75 21.5482 18.75 25C18.75 28.4518 21.5482 31.25 25 31.25Z" fill="black" fill-opacity="0.6"/>
</g>
</svg>
