<svg width="16" height="20" viewBox="0 0 16 20" fill="none" xmlns="http://www.w3.org/2000/svg">
<path d="M6.7923 19.2008C4.66496 19.2008 2.99348 18.5638 1.77785 17.2898C0.592617 15.9855 0 14.1807 0 11.8754C0 9.60039 0.48625 7.56808 1.45875 5.77844C2.43125 3.98879 3.76844 2.5783 5.47031 1.54698C7.17218 0.515661 9.10199 0 11.2597 0C12.7185 0 13.8733 0.242665 14.7242 0.727993C15.5752 1.21332 16.0007 1.88065 16.0007 2.72997C16.0007 3.48829 15.636 4.23145 14.9066 4.95945C14.6331 5.23244 14.2684 5.49027 13.8125 5.73294C13.3871 5.94527 13.0528 6.05143 12.8096 6.05143C12.5361 6.05143 12.3082 5.94527 12.1259 5.73294C11.8219 5.39927 11.4269 5.08078 10.9406 4.77745C10.4544 4.47412 9.77058 4.32245 8.88925 4.32245C7.40011 4.32245 6.18449 4.83811 5.24238 5.86944C4.30027 6.87042 3.82922 8.18991 3.82922 9.82789C3.82922 11.3142 4.25469 12.5124 5.10562 13.4224C5.95656 14.3323 7.08101 14.7873 8.47898 14.7873C9.20836 14.7873 9.99851 14.666 10.8494 14.4233C11.7308 14.1503 12.5057 13.7712 13.1743 13.2859C13.5086 12.9825 13.8581 12.8309 14.2228 12.8309C14.8306 12.8309 15.1345 13.21 15.1345 13.9683C15.1345 14.9693 14.6331 15.9248 13.6302 16.8348C12.8704 17.5325 11.8523 18.1088 10.5759 18.5638C9.32992 18.9885 8.06871 19.2008 6.7923 19.2008Z" fill="#001815"/>
<path d="M6.82675 18.7436C4.76019 18.7436 3.13646 18.1218 1.95557 16.8781C0.804201 15.6049 0.228516 13.843 0.228516 11.5926C0.228516 9.37181 0.700872 7.38789 1.64559 5.64085C2.5903 3.89382 3.88928 2.51692 5.54253 1.51015C7.19578 0.503383 9.07045 0 11.1665 0C12.5836 0 13.7054 0.236887 14.5321 0.71066C15.3587 1.18443 15.772 1.83587 15.772 2.66497C15.772 3.40524 15.4177 4.13071 14.7092 4.84136C14.4435 5.10786 14.0892 5.35955 13.6464 5.59644C13.2331 5.80371 12.9083 5.90735 12.6722 5.90735C12.4065 5.90735 12.1851 5.80371 12.0079 5.59644C11.7127 5.27072 11.3289 4.95981 10.8565 4.6637C10.3842 4.36759 9.71994 4.21954 8.86379 4.21954C7.4172 4.21954 6.2363 4.72292 5.32111 5.72969C4.40592 6.70684 3.94833 7.99491 3.94833 9.59389C3.94833 11.0448 4.36164 12.2144 5.18826 13.1028C6.01489 13.9911 7.10721 14.4353 8.46524 14.4353C9.17378 14.4353 9.94135 14.3168 10.768 14.0799C11.6241 13.8134 12.3769 13.4433 13.0264 12.9695C13.3512 12.6734 13.6907 12.5254 14.045 12.5254C14.6354 12.5254 14.9306 12.8955 14.9306 13.6358C14.9306 14.6129 14.4435 15.5457 13.4693 16.434C12.7312 17.115 11.7422 17.6776 10.5023 18.1218C9.29186 18.5364 8.06669 18.7436 6.82675 18.7436Z" fill="white"/>
</svg>
