<svg width="58" height="70" viewBox="0 0 58 70" fill="none" xmlns="http://www.w3.org/2000/svg">
<path d="M24.6604 69.3095C17.0188 69.3095 11.0146 67.0101 6.64796 62.4114C2.39047 57.7032 0.261719 51.1883 0.261719 42.8668C0.261719 34.6548 2.00838 27.3187 5.50171 20.8586C8.99504 14.3984 13.7984 9.30696 19.9117 5.58418C26.025 1.86139 32.9571 0 40.7079 0C45.9479 0 50.0962 0.875953 53.1529 2.62785C56.2096 4.37975 57.7379 6.78861 57.7379 9.85443C57.7379 12.5918 56.4279 15.2744 53.8079 17.9022C52.8254 18.8877 51.5154 19.8184 49.8779 20.6943C48.3496 21.4608 47.1488 21.844 46.2754 21.844C45.2929 21.844 44.4742 21.4608 43.8192 20.6943C42.7275 19.4899 41.3083 18.3402 39.5617 17.2453C37.815 16.1503 35.3588 15.6029 32.1929 15.6029C26.8438 15.6029 22.4771 17.4642 19.0929 21.187C15.7088 24.8003 14.0167 29.5633 14.0167 35.476C14.0167 40.8412 15.545 45.1662 18.6017 48.451C21.6584 51.7358 25.6975 53.3782 30.7192 53.3782C33.3392 53.3782 36.1775 52.9402 39.2342 52.0643C42.4 51.0788 45.1838 49.7102 47.5854 47.9583C48.7863 46.8633 50.0417 46.3158 51.3517 46.3158C53.535 46.3158 54.6267 47.6845 54.6267 50.4219C54.6267 54.0352 52.8254 57.4842 49.2229 60.769C46.4938 63.2874 42.8367 65.3678 38.2517 67.0102C33.7758 68.5431 29.2454 69.3095 24.6604 69.3095Z" fill="#24786D"/>
</svg>
